# xmcd CD database file
# Copyright (C) 1995-1998 Ti Kan
#
# Track frame offsets:
#	150
#	7570
#	24365
#	39780
#	53902
#	65845
#	75487
#	87595
#	92880
#	105375
#	122635
#	135987
#	148355
#	157592
#	170280
#	180322
#	191365
#	202507
#	215455
#	229252
#	237727
#	245592
#
# Disc length: 3397 seconds
#
# Revision: 1
# Processed by: cddbd v1.4b41PL1 Copyright (c) Steve Scherf et al.
# Submitted via: CDex 1.30
#
DISCID=110d4316
DTITLE=Stefan Grossman - Bottleneck/Slide Blues Guitar
DYEAR=1990
DGENRE=Blues
TTITLE0=Banty Rooster
TTITLE1=One Kind Favor
TTITLE2=Someday Baby
TTITLE3=Sunshine in Houston
TTITLE4=Wake Up Mama
TTITLE5=Nobody's Fault But Mine
TTITLE6=Motherless Children
TTITLE7=God Moves On The Water
TTITLE8=Good Morning Little Schoolboy
TTITLE9=Brownsville Blues
TTITLE10=Pile Driver
TTITLE11=Rainy Day Blues
TTITLE12=Paddlin' Madeline
TTITLE13=Hambone
TTITLE14=Jubilee Jamboree
TTITLE15=Two-Step Swing Thing
TTITLE16=Panic When The Sun Goes Down
TTITLE17=Tin Silver
TTITLE18=Ambidextrous March
TTITLE19=Whistlin' Blues
TTITLE20=Let Me Play It First Before I Aloha
TTITLE21=Laguna Luna
EXTD=\nYEAR: 1990  ID3G:   0
EXTT0=
EXTT1=
EXTT2=
EXTT3=
EXTT4=
EXTT5=
EXTT6=
EXTT7=
EXTT8=
EXTT9=
EXTT10=
EXTT11=
EXTT12=
EXTT13=
EXTT14=
EXTT15=
EXTT16=
EXTT17=
EXTT18=
EXTT19=
EXTT20=
EXTT21=
PLAYORDER=
